<?xml version="1.0" encoding="utf-8"?>
<!-- Generator: Adobe Illustrator 19.1.0, SVG Export Plug-In . SVG Version: 6.00 Build 0)  -->
<svg version="1.1" id="Ebene_1" xmlns="http://www.w3.org/2000/svg" xmlns:xlink="http://www.w3.org/1999/xlink" x="0px" y="0px"
	 width="1716px" height="1080px" viewBox="808 -532 1716 1080" style="enable-background:new 808 -532 1716 1080;"
	 xml:space="preserve">
<style type="text/css">
	.st0{fill:#2D3C49;}
	.st1{fill:#02B3E4;}
</style>
<g id="wordmark_8_">
	<g>
		<path class="st0" d="M1292,500.8c0,18-15,32.8-35.3,32.8s-35.1-14.8-35.1-32.8v-64.7h-10.8v64.8c0,23.3,17.9,42.1,45.7,42.1
			c27.9,0,46.3-18.8,46.3-42.1v-64.8H1292V500.8z M1407.3,436.1h-34.1v105.6h33.8c31.4,0,52.8-19.5,52.8-52.8
			C1460,455.7,1438.9,436.1,1407.3,436.1z M1406.4,532.2h-22.2v-86.6h22.2c25.6,0,42.9,15.4,42.9,43.3
			C1449.3,516.8,1432.1,532.2,1406.4,532.2z M1708.8,533.4c-24.9,0-42.6-20.4-42.6-45.5c0-24.8,17.7-43.9,42.4-43.9
			c19.6,0,31.9,11.6,31.9,11.6l5.5-7.6c0,0-12.7-13.5-37.8-13.5c-29.9,0-52.8,23.1-52.8,53.5c0,30.6,22.2,54.8,53.2,54.8
			c25.7,0,40.1-16.2,40.1-16.2l-6-7.3C1742.7,519.5,1729.9,533.4,1708.8,533.4z M1817.3,541.5h10.8V435.9h-10.8V541.5z
			 M1890.4,445.4h37.9v96.1h10.8v-96.1h37.9v-9.5h-86.6V445.4z M2114.4,435.9h-11.6l-33.6,48.6h-0.3l-34-48.6h-11.8l40.5,60.2v45.3
			h10.8v-45.3L2114.4,435.9z M1551.6,435.9L1509,541.5h11.2l11.4-28.2l47.5-9.7l15.3,37.9h11.2L1563,435.9H1551.6z M1536.2,501.9
			l20.8-51.2h0.3l17.6,43.2L1536.2,501.9z"/>
	</g>
</g>
<path id="mark_4_" class="st1" d="M1535.5-529.1l-254.1,146.7v335.9l0,0c0,154.3,125.1,279.4,279.4,279.4c51,0,98.8-13.7,140-37.6
	l0,0l206.1-119c81.2-42.4,136.6-127.2,136.6-225.1v-351l0,0l0,0l-50.8-29.4 M1992.7-529.1L1789-411.7l0,0l0,0v365.3
	c0,15.6-1.2,31.1-4.2,46.2c-3,14.6-7.9,29.1-13.7,42.9c-1.5,3.5-3.1,7-4.9,10.6c-6.1-0.7-11.9-1.6-17.9-2.8
	c-13-2.7-26.1-6.6-38.3-11.8c-12-5.1-23.7-11.4-34.5-18.7c-10.8-7.3-20.8-15.7-30-24.9c-9.2-9.2-17.6-19.4-24.9-30
	c-7.3-10.8-13.7-22.5-18.7-34.5c-5.1-12.2-9.2-25-11.8-38c-2.7-13.4-4.2-27.2-4.2-41l0,0v-351.1l-50.5-29.4 M1649.9,164.2
	c-13.8,5.8-28.2,10.3-42.9,13.3c-15,3.1-30.6,4.6-46.2,4.6c-15.6,0-30.5-1.6-45.6-4.6c-14.6-3-29.1-7.4-42.9-13.3
	c-13.5-5.7-26.5-12.9-38.8-21.1c-12.2-8.1-23.6-17.6-33.8-27.9c-10.4-10.4-19.8-21.8-27.9-33.8c-8.3-12.2-15.3-25.3-21.1-38.8
	c-5.8-13.8-10.3-28.2-13.3-42.9c-3.1-15-4.6-30.6-4.6-46.2v-306.6l203-117.3v321.6l0,0c0,122.2,85.8,224.3,200.9,248.5
	c-4.5,5.4-9.2,10.6-14.2,15.6c-10.4,10.4-21.8,19.8-33.8,27.9C1676.4,151.4,1663.4,158.5,1649.9,164.2z M1987.8-107.9
	c-2.7,13-6.6,25.9-11.8,38c-5.1,12-11.4,23.7-18.7,34.5s-15.7,20.8-24.9,30s-18.7,17.6-29.5,24.9s-23.1,13.7-35.2,18.7
	c-12.2,5.1-25,9.2-38,11.8c-2.6,0.5-5.1,1.1-7.9,1.5c11.5-30.5,18.4-63.6,18.4-98.1l0,0v-335.8l0,0l151.7-88v321.6
	C1992-135,1990.7-121.1,1987.8-107.9z"/>
</svg>
