<?xml version="1.0" standalone="no"?>
<!DOCTYPE svg PUBLIC "-//W3C//DTD SVG 20010904//EN"
 "http://www.w3.org/TR/2001/REC-SVG-20010904/DTD/svg10.dtd">
<svg version="1.0" xmlns="http://www.w3.org/2000/svg"
 width="700.000000pt" height="700.000000pt" viewBox="0 0 700.000000 700.000000"
 preserveAspectRatio="xMidYMid meet">
<metadata>
Created by potrace 1.11, written by Peter Selinger 2001-2013
</metadata>
<g transform="translate(0.000000,700.000000) scale(0.100000,-0.100000)"
fill="#000000" stroke="none">
<path d="M2359 6086 c-147 -39 -287 -187 -352 -372 -76 -213 -83 -450 -21
-702 145 -590 617 -927 966 -689 191 131 301 415 285 741 -16 338 -149 653
-360 853 -88 83 -180 139 -276 167 -64 19 -177 20 -242 2z"/>
<path d="M4390 6082 c-193 -64 -373 -237 -489 -470 -41 -81 -95 -242 -118
-352 -13 -64 -18 -127 -17 -260 1 -155 4 -186 26 -271 132 -494 544 -634 895
-305 252 235 401 654 363 1026 -29 299 -152 516 -346 611 -57 28 -77 33 -162
36 -75 2 -110 -1 -152 -15z"/>
<path d="M1170 4609 c-190 -31 -350 -197 -412 -426 -31 -116 -29 -304 5 -433
95 -363 371 -620 665 -620 215 0 398 151 479 395 25 74 27 93 27 240 0 133 -4
173 -22 240 -106 387 -435 655 -742 604z"/>
<path d="M5684 4610 c-262 -38 -494 -269 -591 -587 -24 -79 -26 -105 -27 -248
-1 -141 2 -169 22 -235 82 -258 260 -410 484 -410 240 0 486 184 610 457 56
124 80 242 80 388 1 211 -51 360 -169 486 -112 118 -257 171 -409 149z"/>
<path d="M3359 3861 c-287 -53 -610 -233 -921 -514 -745 -673 -1181 -1636
-949 -2095 112 -221 328 -337 652 -350 246 -9 386 19 781 153 317 108 414 129
578 129 178 0 274 -22 670 -159 297 -102 461 -131 689 -123 324 13 540 129
652 350 44 88 62 176 61 308 -4 807 -1000 2049 -1826 2276 -100 28 -301 40
-387 25z"/>
</g>
</svg>
